<svg width="1618" height="13" viewBox="0 0 1618 13" fill="none" xmlns="http://www.w3.org/2000/svg">
<line x1="4" y1="6.5" x2="1612" y2="6.5" stroke="#FEFEFE"/>
<circle cx="6.5" cy="6.5" r="2.5" fill="#FEFEFE"/>
<circle cx="6.5" cy="6.5" r="6" stroke="#FEFEFE"/>
<circle cx="204.5" cy="6.5" r="2.5" fill="#FEFEFE"/>
<circle cx="204.5" cy="6.5" r="6" stroke="#FEFEFE"/>
<circle cx="443.5" cy="6.5" r="2.5" fill="#FEFEFE"/>
<circle cx="443.5" cy="6.5" r="6" stroke="#FEFEFE"/>
<circle cx="681.5" cy="6.5" r="2.5" fill="#FEFEFE"/>
<circle cx="681.5" cy="6.5" r="6" stroke="#FEFEFE"/>
<circle cx="867.5" cy="6.5" r="2.5" fill="#FEFEFE"/>
<circle cx="867.5" cy="6.5" r="6" stroke="#FEFEFE"/>
<circle cx="1053.5" cy="6.5" r="2.5" fill="#FEFEFE"/>
<circle cx="1053.5" cy="6.5" r="6" stroke="#FEFEFE"/>
<circle cx="681.5" cy="6.5" r="2.5" fill="#FEFEFE"/>
<circle cx="1239.5" cy="6.5" r="2.5" fill="#FEFEFE"/>
<circle cx="681.5" cy="6.5" r="6" stroke="#FEFEFE"/>
<circle cx="1239.5" cy="6.5" r="6" stroke="#FEFEFE"/>
<circle cx="867.5" cy="6.5" r="2.5" fill="#FEFEFE"/>
<circle cx="1425.5" cy="6.5" r="2.5" fill="#FEFEFE"/>
<circle cx="867.5" cy="6.5" r="6" stroke="#FEFEFE"/>
<circle cx="1425.5" cy="6.5" r="6" stroke="#FEFEFE"/>
<circle cx="1053.5" cy="6.5" r="2.5" fill="#FEFEFE"/>
<circle cx="1611.5" cy="6.5" r="2.5" fill="#FEFEFE"/>
<circle cx="1053.5" cy="6.5" r="6" stroke="#FEFEFE"/>
<circle cx="1611.5" cy="6.5" r="6" stroke="#FEFEFE"/>
</svg>
